<?xml version="1.0" standalone="no"?>
<!DOCTYPE svg PUBLIC "-//W3C//DTD SVG 20010904//EN"
 "http://www.w3.org/TR/2001/REC-SVG-20010904/DTD/svg10.dtd">
<svg version="1.0" xmlns="http://www.w3.org/2000/svg"
 width="300.000000pt" height="300.000000pt" viewBox="0 0 300.000000 300.000000"
 preserveAspectRatio="xMidYMid meet">
<metadata>
Created by potrace 1.10, written by Peter Selinger 2001-2011
</metadata>
<g transform="translate(0.000000,300.000000) scale(0.100000,-0.100000)"
fill="#000000" stroke="none">
<path d="M1497 2135 c-27 -7 -72 -25 -101 -39 -29 -14 -58 -26 -64 -26 -17 0
-15 20 5 44 10 12 3 8 -15 -8 -32 -29 -44 -54 -19 -40 6 4 2 -4 -9 -17 -21
-24 -44 -62 -44 -74 0 -3 23 13 51 34 70 57 182 109 264 125 64 13 66 14 25
14 -25 0 -67 -6 -93 -13z"/>
<path d="M1237 2070 c-29 -27 -65 -65 -78 -84 -13 -20 -29 -36 -36 -36 -15 0
-43 -84 -43 -132 0 -37 -1 -38 -37 -38 l-38 0 0 -170 0 -170 35 0 35 0 -3 150
c-3 149 -3 150 29 232 41 104 67 146 142 231 32 37 57 67 54 67 -3 0 -30 -22
-60 -50z"/>
<path d="M1516 2095 c-71 -29 -99 -52 -37 -30 55 19 85 19 174 -1 78 -18 147
-48 147 -65 0 -6 -3 -9 -7 -7 -51 26 -96 41 -139 45 -63 7 -144 -4 -144 -19 0
-7 17 -8 51 -4 34 5 49 4 44 -4 -3 -5 -2 -10 4 -10 5 0 18 -3 28 -6 16 -6 16
-5 -2 10 -19 17 -18 17 23 11 24 -3 51 -9 60 -13 9 -5 31 -16 49 -24 30 -15
31 -15 37 5 8 33 -28 61 -114 90 -41 14 -74 30 -72 36 4 18 -39 12 -102 -14z"/>
<path d="M1696 1982 c-3 -5 13 -26 35 -48 22 -21 50 -54 62 -73 11 -19 22 -30
25 -23 2 6 -9 29 -24 52 -23 35 -25 43 -13 51 10 6 10 9 2 9 -24 0 -28 1 -43
14 -25 21 -38 27 -44 18z"/>
<path d="M1072 1933 c-5 -10 -13 -38 -16 -63 -6 -44 -6 -43 13 15 20 59 21 83
3 48z"/>
<path d="M1623 1912 c-9 -6 1 -20 33 -46 45 -37 49 -22 5 18 -11 10 -18 23
-15 27 6 11 -7 11 -23 1z"/>
<path d="M1360 1836 c-42 -11 -120 -52 -120 -62 0 -2 23 7 51 21 73 37 159 43
245 17 38 -12 78 -29 89 -39 24 -23 95 -57 102 -49 6 6 -82 93 -111 108 -20
10 -20 10 -5 -8 32 -38 32 -47 -2 -22 -48 36 -64 44 -54 28 6 -9 2 -10 -16 -5
-83 27 -114 29 -179 11z"/>
<path d="M1745 1828 c-4 -9 -2 -26 4 -37 6 -11 10 -24 9 -28 -1 -4 5 -28 12
-53 7 -25 15 -38 17 -30 2 8 -3 37 -11 64 -8 27 -13 53 -10 58 3 4 1 16 -5 25
-9 17 -10 17 -16 1z"/>
<path d="M1827 1823 c-3 -3 3 -23 14 -45 24 -48 32 -46 18 5 -10 37 -21 51
-32 40z"/>
<path d="M1376 1797 c-26 -12 -22 -12 43 -9 42 3 76 0 80 -5 3 -6 30 -12 59
-15 61 -6 57 3 -11 26 -56 19 -130 20 -171 3z"/>
<path d="M690 1610 l0 -170 95 0 c52 0 105 5 118 11 51 23 63 105 22 143 -25
23 -25 23 -5 41 31 28 26 80 -9 116 -28 28 -33 29 -125 29 l-96 0 0 -170z
m178 82 c5 -35 -15 -52 -64 -52 l-44 0 0 41 0 40 53 -3 c46 -3 52 -6 55 -26z
m-118 -67 c13 -16 6 -35 -14 -35 -6 0 -12 11 -12 25 0 28 8 32 26 10z m118
-57 c34 -34 1 -68 -67 -68 l-41 0 0 40 0 40 48 0 c26 0 53 -5 60 -12z"/>
<path d="M1415 1760 c-11 -5 -15 -9 -10 -10 6 0 -1 -10 -15 -21 -22 -17 -18
-17 25 4 28 13 57 27 65 30 8 3 2 5 -15 6 -16 0 -39 -4 -50 -9z"/>
<path d="M1140 1590 c0 -106 1 -112 26 -137 21 -21 32 -24 62 -19 20 3 43 13
49 23 12 16 13 16 13 0 0 -13 9 -17 33 -17 l32 0 -2 127 -1 128 -31 3 -31 3 0
-75 c0 -82 -10 -120 -34 -129 -39 -15 -46 1 -46 104 l0 99 -35 0 -35 0 0 -110z"/>
<path d="M1462 1684 c-53 -37 -70 -140 -32 -201 26 -44 85 -62 136 -42 40 15
80 60 70 78 -12 18 -54 13 -66 -9 -7 -13 -21 -20 -39 -20 -31 0 -45 12 -56 48
-7 23 -6 23 79 21 47 -1 86 1 86 5 0 63 -2 70 -34 102 -28 28 -41 34 -78 34
-24 0 -54 -7 -66 -16z m106 -61 c14 -23 14 -23 -42 -23 -58 0 -60 3 -33 38 15
19 58 10 75 -15z"/>
<path d="M1660 1692 c0 -5 20 -63 45 -130 24 -67 42 -129 39 -137 -4 -9 -18
-15 -35 -15 -26 0 -29 -4 -29 -30 0 -26 3 -30 29 -30 49 0 68 27 121 179 27
79 50 150 50 158 0 10 -9 13 -27 11 -24 -3 -29 -10 -46 -75 -11 -40 -23 -73
-26 -73 -3 0 -16 34 -29 75 -22 75 -23 75 -57 75 -19 0 -35 -4 -35 -8z m127
-168 c3 -9 1 -20 -5 -26 -7 -7 -15 -1 -26 20 -9 17 -16 34 -16 37 0 11 41 -16
47 -31z"/>
<path d="M1963 1690 c-57 -23 -83 -138 -46 -201 23 -39 76 -63 122 -55 38 6
95 58 88 79 -7 22 -48 20 -64 -2 -16 -23 -62 -28 -81 -9 -7 7 -12 23 -12 36 0
23 2 23 83 21 l82 -2 -2 29 c-4 46 -24 84 -54 99 -31 17 -82 18 -116 5z m91
-56 c26 -26 18 -34 -34 -34 -34 0 -50 4 -50 13 0 35 56 50 84 21z m-94 -48 c0
-7 -7 -19 -15 -26 -12 -10 -15 -9 -15 7 0 11 3 23 7 26 11 12 23 8 23 -7z"/>
<path d="M2195 1675 c-30 -29 -33 -74 -7 -103 9 -12 42 -27 72 -35 35 -8 55
-19 55 -28 0 -20 -62 -24 -83 -6 -22 19 -74 11 -70 -11 6 -30 57 -57 108 -57
67 0 104 28 108 82 4 50 -18 71 -90 87 -35 7 -53 17 -53 26 0 18 53 26 68 11
16 -16 67 -14 67 3 0 29 -50 56 -102 56 -39 0 -54 -5 -73 -25z"/>
<path d="M930 1434 c0 -21 28 -79 60 -122 38 -53 30 -70 -11 -24 -36 40 -39
25 -3 -18 25 -29 134 -94 119 -71 -3 6 0 11 7 11 7 0 -8 21 -34 48 -25 26 -66
78 -92 117 -25 38 -46 65 -46 59z"/>
<path d="M1084 1405 c7 -28 -2 -32 -30 -10 -31 23 -36 17 -12 -15 26 -36 101
-86 143 -96 l30 -7 -38 38 c-21 20 -50 54 -64 76 -30 45 -38 49 -29 14z"/>
<path d="M1348 1404 c12 -23 52 -61 52 -49 0 4 7 2 15 -5 9 -7 17 -11 19 -9 2
2 -19 22 -46 43 -32 25 -47 32 -40 20z"/>
<path d="M1395 1405 c38 -30 95 -39 170 -26 38 6 74 17 80 23 7 8 4 9 -10 3
-42 -17 -174 -18 -218 -1 -36 14 -39 14 -22 1z"/>
<path d="M1864 1330 c-19 -27 -58 -66 -85 -86 -60 -44 -64 -54 -6 -17 23 14
37 20 30 12 -19 -24 -190 -110 -246 -125 -29 -8 -69 -14 -90 -14 -23 0 -36 -4
-32 -10 10 -16 -131 -12 -204 5 -35 9 -91 30 -124 47 -68 37 -153 109 -162
139 -4 11 -9 18 -12 15 -7 -7 36 -76 66 -105 14 -13 49 -39 78 -58 30 -19 52
-37 50 -41 -2 -4 5 -15 16 -25 19 -19 19 -18 12 2 -8 25 -6 25 65 6 71 -19
181 -19 227 0 19 8 45 15 57 15 21 1 117 32 191 64 l40 17 -34 -29 c-62 -53
-170 -101 -274 -122 -156 -31 -218 -35 -256 -16 -19 10 -29 21 -25 28 5 8 1 9
-10 5 -13 -5 -19 -1 -23 13 -6 23 -19 26 -26 8 -3 -9 -10 -7 -20 7 -16 20 -16
20 -10 -3 3 -13 13 -26 22 -30 9 -3 27 -14 41 -24 26 -18 130 -49 165 -47 11
0 14 3 8 6 -24 9 -13 20 15 15 16 -2 46 1 68 8 21 6 67 18 102 25 96 22 194
79 286 167 45 43 72 75 61 71 -17 -5 -17 -2 6 23 38 42 82 104 75 104 -3 0
-22 -22 -42 -50z"/>
<path d="M1775 1300 c-33 -22 -55 -40 -49 -40 6 0 30 14 52 30 47 34 61 38 41
13 -11 -15 -11 -16 1 -6 11 10 24 43 17 43 -1 0 -29 -18 -62 -40z"/>
<path d="M1650 1306 c-25 -7 -40 -15 -34 -19 12 -7 72 9 89 24 11 11 3 10 -55
-5z"/>
<path d="M1895 1266 c-16 -39 -120 -156 -137 -156 -5 0 -32 -16 -61 -35 -75
-51 -44 -43 41 10 61 38 71 42 61 23 -11 -21 -11 -22 4 -9 10 7 17 19 17 25 0
7 12 23 26 37 31 28 77 115 71 132 -3 7 -12 -6 -22 -27z"/>
<path d="M1680 1217 c-14 -6 -31 -17 -38 -24 -7 -7 -21 -13 -30 -14 -12 0 -10
-3 6 -10 15 -6 30 -5 40 1 10 5 13 10 8 10 -5 0 4 11 20 25 32 28 31 29 -6 12z"/>
<path d="M1136 1192 c23 -20 159 -74 192 -77 20 -1 28 0 17 2 -45 10 -30 18
38 20 68 2 184 33 171 46 -3 3 -31 -4 -62 -15 -74 -25 -200 -21 -287 10 -63
23 -86 28 -69 14z"/>
<path d="M1036 1031 c-9 -14 20 -40 44 -41 12 0 12 2 0 13 -8 6 -19 18 -26 26
-8 11 -13 11 -18 2z"/>
<path d="M1049 972 c31 -25 164 -62 222 -62 62 0 310 63 297 75 -2 2 -48 -7
-103 -20 -160 -39 -226 -41 -320 -12 -44 13 -89 27 -100 31 -16 7 -16 4 4 -12z"/>
</g>
</svg>
